<svg width="32" height="32" viewBox="0 0 32 32" fill="none" xmlns="http://www.w3.org/2000/svg">
<path fill-rule="evenodd" clip-rule="evenodd" d="M14.5333 20.3997C14.5333 21.2107 15.1904 21.8663 16 21.8663L16.1716 21.8575C16.9005 21.7725 17.4667 21.1521 17.4667 20.3997V6.34166L22.2965 11.1699C22.8685 11.7434 23.7982 11.7434 24.3702 11.1699C24.9437 10.5979 24.9437 9.66954 24.3702 9.09607L17.0369 1.76274C16.9856 1.71141 16.9298 1.66448 16.8726 1.62195C16.8374 1.59555 16.8008 1.5706 16.7641 1.54714C16.7465 1.53687 16.7275 1.52661 16.7099 1.51634C16.6806 1.50021 16.6512 1.48553 16.6204 1.47087C16.5954 1.45913 16.5705 1.44741 16.5441 1.43714C16.5162 1.42687 16.487 1.41515 16.4576 1.40635C16.4356 1.39901 16.4121 1.39167 16.3901 1.3858C16.3579 1.377 16.3271 1.36968 16.2948 1.36235C16.2684 1.35795 16.2435 1.35354 16.2185 1.34914C16.1892 1.34474 16.1584 1.3418 16.1261 1.33887C16.0997 1.33594 16.0734 1.33448 16.0484 1.33448C16.0323 1.33302 16.0161 1.33301 16 1.33301C15.9252 1.33301 15.8533 1.33888 15.7829 1.34914C15.7565 1.35354 15.7316 1.35795 15.7052 1.36235C15.673 1.36968 15.6422 1.377 15.6099 1.3858C15.5879 1.39167 15.5644 1.39901 15.5424 1.40635C15.5131 1.41515 15.4838 1.42687 15.4559 1.43714C15.4295 1.44741 15.4046 1.45913 15.3796 1.47087C15.3488 1.48553 15.3195 1.50021 15.2901 1.51634C15.2725 1.52661 15.2535 1.53687 15.2359 1.54714C15.1992 1.5706 15.1626 1.59555 15.1274 1.62195C15.1157 1.62928 15.1053 1.63807 15.0951 1.6454C15.0496 1.68207 15.0042 1.72167 14.9631 1.76274L7.62979 9.09607C7.05632 9.66954 7.05632 10.5979 7.62979 11.1699L7.76764 11.2931C8.34258 11.7405 9.17557 11.6994 9.70357 11.1699L14.5333 6.34166V20.3997ZM30.6667 20.3997C30.6667 19.5901 30.0096 18.933 29.2 18.933C28.3904 18.933 27.7333 19.5901 27.7333 20.3997V26.2663C27.7333 27.0774 27.0763 27.733 26.2667 27.733H5.73334C4.92374 27.733 4.26668 27.0774 4.26668 26.2663V20.3997C4.26668 19.5901 3.60961 18.933 2.80001 18.933C1.99041 18.933 1.33334 19.5901 1.33334 20.3997V26.2663C1.33334 28.6966 3.30308 30.6663 5.73334 30.6663H26.2667C28.6969 30.6663 30.6667 28.6966 30.6667 26.2663V20.3997Z" fill="white"/>
</svg>
