<svg width="24" height="24" viewBox="0 0 24 24" fill="none" xmlns="http://www.w3.org/2000/svg">
<path fill-rule="evenodd" clip-rule="evenodd" d="M10.9506 3.09989C11.5248 3.09989 11.9901 3.5652 11.9901 4.1394C11.9901 4.7136 11.5248 5.17889 10.9506 5.17889H4.01949C3.50029 5.17889 3.07902 5.6002 3.07902 6.11941V19.9794C3.07902 20.4997 3.50029 20.921 4.01949 20.921H17.8806C18.4009 20.921 18.8211 20.4997 18.8211 19.9794V13.0494C18.8211 12.4752 19.2864 12.0099 19.8606 12.0099C20.4348 12.0099 20.9012 12.4752 20.9012 13.0494V19.9794C20.9012 21.6481 19.5482 23 17.8806 23H4.01949C2.35189 23 1 21.6481 1 19.9794V6.11941C1 4.45181 2.35189 3.09989 4.01949 3.09989H10.9506ZM22.0804 1.9196C23.3058 3.145 23.3069 5.13269 22.0815 6.35919L12.6754 15.7653C12.5423 15.8984 12.3751 15.993 12.1925 16.0381L8.23251 17.0281C7.47131 17.2184 6.78162 16.5287 6.97192 15.7675L7.96188 11.8075C8.00698 11.6249 8.10163 11.4577 8.23473 11.3246L17.6408 1.9185C18.8673 0.693105 20.855 0.694196 22.0804 1.9196ZM19.1104 3.38919L9.9089 12.5907L9.40838 14.5905L11.4093 14.0911L20.6108 4.88959C21.0244 4.47489 21.0244 3.8039 20.6097 3.3903C20.1961 2.9756 19.5251 2.97559 19.1104 3.38919Z" fill="white"/>
</svg>
