<svg width="24" height="24" viewBox="0 0 24 24" fill="none" xmlns="http://www.w3.org/2000/svg">
<path d="M12 1C18.0751 1 23 5.92487 23 12C23 16.7122 20.037 20.7323 15.8725 22.299C15.853 22.3076 15.8325 22.3151 15.8117 22.3219C14.6239 22.7604 13.3399 23 12 23C10.6601 23 9.37608 22.7604 8.18856 22.3218C8.16751 22.3151 8.14705 22.3076 8.12691 22.2995C3.96299 20.7323 1 16.7122 1 12C1 5.92487 5.92487 1 12 1ZM13.5 14.5H10.5C9.98716 14.5 9.56449 14.886 9.50673 15.3834L9.5 15.5L9.49944 20.6481C10.2933 20.8772 11.1323 21 12 21C12.8673 21 13.706 20.8773 14.4996 20.6484L14.5 15.5C14.5 14.9872 14.114 14.5645 13.6166 14.5067L13.5 14.5ZM12 3C7.02944 3 3 7.02944 3 12C3 15.3312 4.8098 18.2397 7.49979 19.7958L7.5 15.5C7.5 13.8431 8.84315 12.5 10.5 12.5H13.5C15.1569 12.5 16.5 13.8431 16.5 15.5L16.5012 19.7953C19.1906 18.2389 21 15.3308 21 12C21 7.02944 16.9706 3 12 3ZM12 4.5C13.933 4.5 15.5 6.067 15.5 8C15.5 9.933 13.933 11.5 12 11.5C10.067 11.5 8.5 9.933 8.5 8C8.5 6.067 10.067 4.5 12 4.5ZM12 6.5C11.1716 6.5 10.5 7.17157 10.5 8C10.5 8.82843 11.1716 9.5 12 9.5C12.8284 9.5 13.5 8.82843 13.5 8C13.5 7.17157 12.8284 6.5 12 6.5Z" fill="#A9A9A9"/>
</svg>
