<svg width="24" height="24" viewBox="0 0 24 24" fill="none" xmlns="http://www.w3.org/2000/svg">
<path d="M5.69546 1.56564C5.3814 1.70158 5.20327 2.06251 5.2689 2.41407C5.31109 2.63439 5.54546 2.8922 5.7564 2.95314C5.87827 2.99064 7.86109 3.00001 12.1033 2.99064C18.2533 2.97657 18.2767 2.97657 18.4033 2.87814C18.6517 2.69532 18.7267 2.54532 18.7267 2.25001C18.7267 1.9547 18.6517 1.8047 18.4033 1.62189C18.2767 1.52345 18.258 1.52345 12.0564 1.51408C6.9564 1.5047 5.81265 1.51408 5.69546 1.56564Z" fill="#A9A9A9"/>
<path d="M3.44546 4.56564C3.1314 4.70157 2.95327 5.06251 3.0189 5.41407C3.06109 5.63439 3.29546 5.8922 3.5064 5.95314C3.62827 5.99064 6.28608 6.00001 12.1033 5.99064L20.5267 5.97657L20.6533 5.87814C20.9017 5.69532 20.9767 5.54532 20.9767 5.25001C20.9767 4.9547 20.9017 4.8047 20.6533 4.62189L20.5267 4.52345L12.0564 4.51407C5.08609 4.5047 3.56265 4.51407 3.44546 4.56564Z" fill="#A9A9A9"/>
<path d="M3.1922 7.57501C2.40001 7.78595 1.78126 8.41876 1.57032 9.22033C1.46251 9.62814 1.4672 20.3766 1.57032 20.7891C1.78126 21.5953 2.40938 22.2188 3.22032 22.4297C3.62345 22.5375 20.3766 22.5375 20.7797 22.4297C21.5906 22.2188 22.2188 21.5953 22.4297 20.7891C22.4906 20.5453 22.5 19.8 22.5 15C22.5 10.2 22.4906 9.4547 22.4297 9.21095C22.2188 8.4047 21.5906 7.78126 20.7797 7.57033C20.3813 7.4672 3.58126 7.47189 3.1922 7.57501ZM20.6531 9.12189C20.7234 9.17345 20.8266 9.27658 20.8781 9.34689C20.9766 9.47345 20.9766 9.4922 20.9766 15C20.9766 20.5078 20.9766 20.5266 20.8781 20.6531C20.8266 20.7234 20.7234 20.8266 20.6531 20.8781L20.5266 20.9766H12H3.47345L3.34688 20.8781C3.27657 20.8266 3.17345 20.7234 3.12188 20.6531C3.02345 20.5266 3.02345 20.4938 3.00938 15.1266C3.0047 12.1547 3.00938 9.66095 3.02345 9.57658C3.05626 9.38908 3.25313 9.15001 3.44532 9.06564C3.56251 9.01408 5.08595 9.0047 12.0563 9.01408L20.5266 9.02345L20.6531 9.12189Z" fill="#A9A9A9"/>
<path d="M8.69518 11.325C8.47955 11.4375 8.3483 11.5781 8.29205 11.761C8.26393 11.8735 8.24987 13.0125 8.25924 15.1031C8.2733 18.2203 8.2733 18.2766 8.37174 18.4031C8.52643 18.6141 8.69986 18.7172 8.93893 18.736C9.15924 18.7594 9.25299 18.7172 12.2342 17.2266C13.9217 16.3828 15.3655 15.6516 15.4405 15.5953C15.6327 15.4594 15.7686 15.1313 15.7311 14.8875C15.6655 14.4844 15.7124 14.5125 12.3233 12.8203C9.00455 11.1563 9.00924 11.161 8.69518 11.325ZM13.2655 15C13.2655 15.0141 12.4733 15.4172 11.5077 15.9047L9.74986 16.7813V15V13.2188L11.5077 14.0953C12.4733 14.5828 13.2655 14.986 13.2655 15Z" fill="#A9A9A9"/>
</svg>
