<svg width="1280" height="720" viewBox="0 0 1280 720" fill="none" xmlns="http://www.w3.org/2000/svg">
<g clip-path="url(#clip0_5680_11717)">
<rect width="1280" height="720" fill="white"/>
<rect width="1280" height="722.581" fill="#C1DAFF"/>
<rect y="423" width="1280" height="300" fill="#4782DA"/>
<g clip-path="url(#clip1_5680_11717)">
<path d="M636.754 582.179L917.181 418.703V424.404H917.147L917.181 424.439L636.754 587.95L425.325 465.465V459.728L636.754 582.179Z" fill="#347CE2"/>
<path d="M705.717 296.217L917.181 418.703L636.754 582.179L425.325 459.728L705.717 296.217Z" fill="white"/>
<path d="M629.754 439.494L582.45 453.401L567.306 444.639L718.713 401.18L736.457 411.436L662.364 499.676L646.666 490.602L670.058 462.788L629.754 439.494ZM699.584 429.063C704.574 423.396 709.599 418.633 714.451 413.766L713.931 413.453C705.891 416.373 696.985 419.398 687.974 422.145L644.171 434.73L678.375 454.548L699.584 429.063Z" fill="#347CE2"/>
<path d="M636.754 570.671L917.181 407.195V412.931H917.147L917.181 412.966L636.754 576.442L425.325 453.957V448.22L636.754 570.671Z" fill="#347CE2"/>
<path d="M705.717 284.709L917.181 407.195L636.754 570.671L425.325 448.22L705.717 284.709Z" fill="white"/>
<path d="M629.754 428.09L582.346 441.997L567.202 433.235L718.609 389.776L736.352 400.033L662.26 488.272L646.561 479.198L669.953 451.384L629.754 428.09ZM699.583 417.66C704.574 411.958 709.598 407.229 714.45 402.327L713.93 402.014C705.89 404.97 696.984 407.96 687.974 410.706L644.17 423.292L678.374 443.109L699.583 417.66Z" fill="#347CE2"/>
<path d="M636.754 559.406L917.181 395.93V401.667H917.147L917.181 401.701L636.754 565.178L425.325 442.692V436.956L636.754 559.406Z" fill="#347CE2"/>
<path d="M705.717 273.444L917.181 395.93L636.754 559.406L425.325 436.956L705.717 273.444Z" fill="white"/>
<path d="M629.754 416.756L582.45 430.663L567.306 421.901L718.713 378.442L736.457 388.698L662.364 476.764L646.666 467.655L670.058 439.841L629.754 416.756ZM699.584 406.325C704.574 400.658 709.599 395.895 714.451 390.993L713.931 390.715C705.891 393.635 696.985 396.66 687.974 399.372L644.171 411.958L678.375 431.775L699.584 406.325Z" fill="#347CE2"/>
<path d="M636.754 547.933L917.181 384.422V390.159H917.147L917.181 390.193L636.754 553.67L425.325 431.184V425.447L636.754 547.933Z" fill="#347CE2"/>
<path d="M705.717 261.971L917.181 384.422L636.754 547.933L425.325 425.448L705.717 261.971Z" fill="white"/>
<path d="M629.754 405.248L582.45 419.155L567.306 410.358L718.713 366.899L736.457 377.329L662.364 465.569L646.666 456.46L670.058 428.646L629.754 405.248ZM699.584 394.817C704.574 389.15 709.599 384.387 714.451 379.485L713.931 379.207C705.891 382.127 696.985 385.152 687.974 387.864L644.171 400.276L678.375 420.059L699.584 394.817Z" fill="#347CE2"/>
<path d="M636.754 536.425L917.181 372.949V378.651H917.147L917.181 378.685L636.754 542.162L425.325 419.711V413.939L636.754 536.425Z" fill="#347CE2"/>
<path d="M629.754 393.74L582.45 407.647L567.306 398.85L718.713 355.426L736.457 365.856L662.364 454.096L646.666 445.022L670.058 417.208L629.754 393.74ZM699.584 383.309C704.574 377.642 709.599 372.879 714.451 367.977L713.931 367.699C705.891 370.619 696.985 373.644 687.974 376.391L644.171 388.976L678.375 408.794L699.584 383.309Z" fill="#347CE2"/>
<path d="M636.754 536.495L917.181 373.018V378.755H917.147L917.181 378.79L636.754 542.266L425.325 419.78V414.044L636.754 536.495Z" fill="#347CE2"/>
<path d="M705.717 250.533L917.181 373.018L636.754 536.495L425.325 414.044L705.717 250.533Z" fill="white"/>
<path d="M629.754 393.844L582.45 407.751L567.306 398.99L718.713 355.53L736.457 365.787L662.364 454.026L646.666 444.952L670.058 417.138L629.754 393.844ZM699.584 383.414C704.574 377.712 709.599 372.983 714.451 368.081L713.931 367.768C705.891 370.724 696.985 373.714 687.974 376.46L644.171 389.046L678.375 408.863L699.584 383.414Z" fill="#347CE2"/>
<path d="M636.754 525.021L917.181 361.51V367.247H917.147L917.181 367.282L636.754 530.758L425.325 408.272V402.536L636.754 525.021Z" fill="#347CE2"/>
<path d="M705.717 239.059L917.181 361.51L636.754 525.021L425.325 402.536L705.717 239.059Z" fill="white"/>
<path d="M629.754 382.336L582.45 396.243L567.306 387.447L718.713 343.987L736.457 354.418L662.364 442.657L646.666 433.548L670.058 405.734L629.754 382.336ZM699.584 371.906C704.574 366.239 709.599 361.475 714.451 356.573L713.931 356.295C705.891 359.216 696.985 362.24 687.974 364.952L644.171 377.573L678.375 397.355L699.584 371.906Z" fill="#347CE2"/>
<path d="M636.754 513.757L917.181 350.246V355.982H917.147L917.181 356.017L636.754 519.493L425.325 397.008V391.271L636.754 513.757Z" fill="#347CE2"/>
<path d="M705.717 227.795L917.181 350.246L636.754 513.757L425.325 391.271L705.717 227.795Z" fill="white"/>
<path d="M629.754 371.071L582.45 384.978L567.306 376.182L718.713 332.758L736.457 343.188L662.364 431.427L646.666 422.318L670.058 394.504L629.754 371.071ZM699.584 360.641C704.574 354.974 709.599 350.211 714.451 345.309L713.931 345.03C705.891 347.951 696.985 350.976 687.974 353.688L644.171 366.308L678.375 386.091L699.584 360.641Z" fill="#347CE2"/>
<path d="M636.754 502.249L917.181 338.772V344.474H917.147L917.181 344.509L636.754 507.985L425.325 385.535V379.763L636.754 502.249Z" fill="#347CE2"/>
<path d="M705.717 216.287L917.181 338.772L636.754 502.249L425.325 379.763L705.717 216.287Z" fill="white"/>
<path d="M629.754 359.563L582.45 373.47L567.306 364.674L718.713 321.249L736.457 331.68L662.364 419.919L646.666 410.845L670.058 383.031L629.754 359.563ZM699.584 349.133C704.574 343.466 709.599 338.703 714.451 333.801L713.931 333.522C705.891 336.443 696.985 339.468 687.974 342.214L644.171 354.8L678.375 374.617L699.584 349.133Z" fill="#347CE2"/>
<path d="M636.754 490.741L917.181 327.264V332.966H917.147L917.181 333.001L636.754 496.512L425.325 374.026V368.255L636.754 490.741Z" fill="#347CE2"/>
<path d="M705.717 204.779L917.181 327.264L636.754 490.741L425.325 368.255L705.717 204.779Z" fill="white"/>
<g filter="url(#filter0_d_5680_11717)">
<path d="M579.928 482.87L832.587 278.964L833.444 284.601L833.41 284.606L833.449 284.635L580.795 488.575L353.366 399.373L352.499 393.667L579.928 482.87Z" fill="#347CE2"/>
</g>
<path d="M605.123 189.767L832.587 278.964L579.927 482.87L352.498 393.667L605.123 189.767Z" fill="white"/>
<path d="M590.304 315.366L621.134 290.445L636.255 314.844L590.304 315.366ZM754.87 309.345L574.056 238.492L486.946 308.619L667.761 379.472L754.87 309.345Z" fill="#3A54FC"/>
<path d="M621.134 290.445L590.304 315.366L636.255 314.844L621.134 290.445Z" fill="#F9FCFF"/>
<path d="M594.934 378.37L467.075 328.054C465.474 327.535 462.872 327.932 461.498 328.904C460.124 329.877 460.351 331.368 461.951 331.887L590.182 382.146C591.782 382.665 594.385 382.268 595.759 381.296C596.761 380.38 596.534 378.889 594.934 378.37Z" fill="#B5C7E8"/>
<path d="M529.071 365.524L456.254 336.952C454.653 336.434 452.051 336.83 450.677 337.803C449.303 338.775 449.53 340.267 451.13 340.786L523.948 369.357C525.548 369.876 528.151 369.479 529.525 368.507C530.899 367.534 530.729 366.416 529.071 365.524Z" fill="#B5C7E8"/>
<path d="M512.276 332.606L478.268 319.098C476.667 318.58 474.065 318.976 472.691 319.949C471.317 320.921 471.543 322.413 473.144 322.932L507.152 336.439C508.752 336.958 511.355 336.561 512.729 335.589C514.103 334.616 513.876 333.125 512.276 332.606Z" fill="#DCE6F6"/>
<path d="M584.113 387.269L540.017 369.959C538.416 369.44 535.814 369.837 534.44 370.809C533.066 371.782 533.292 373.273 534.893 373.792L578.989 391.102C580.59 391.621 583.192 391.224 584.566 390.251C585.94 389.279 585.713 387.787 584.113 387.269Z" fill="#B5C7E8"/>
</g>
</g>
<defs>
<filter id="filter0_d_5680_11717" x="336.499" y="262.964" width="512.951" height="241.611" filterUnits="userSpaceOnUse" color-interpolation-filters="sRGB">
<feFlood flood-opacity="0" result="BackgroundImageFix"/>
<feColorMatrix in="SourceAlpha" type="matrix" values="0 0 0 0 0 0 0 0 0 0 0 0 0 0 0 0 0 0 127 0" result="hardAlpha"/>
<feOffset/>
<feGaussianBlur stdDeviation="8"/>
<feColorMatrix type="matrix" values="0 0 0 0 0.027451 0 0 0 0 0.0705882 0 0 0 0 0.145098 0 0 0 0.2 0"/>
<feBlend mode="normal" in2="BackgroundImageFix" result="effect1_dropShadow_5680_11717"/>
<feBlend mode="normal" in="SourceGraphic" in2="effect1_dropShadow_5680_11717" result="shape"/>
</filter>
<clipPath id="clip0_5680_11717">
<rect width="1280" height="720" fill="white"/>
</clipPath>
<clipPath id="clip1_5680_11717">
<rect width="589" height="446" fill="white" transform="matrix(-1 0 0 1 935 148)"/>
</clipPath>
</defs>
</svg>
