<svg width="24" height="24" viewBox="0 0 24 24" fill="none" xmlns="http://www.w3.org/2000/svg">
<path fill-rule="evenodd" clip-rule="evenodd" d="M12 1C13.5564 1 14.8182 2.26177 14.8182 3.81824L14.8182 3.89608C14.819 4.09537 14.938 4.27515 15.131 4.35794C15.318 4.44047 15.5364 4.40087 15.6747 4.26569L15.7289 4.21155C16.2575 3.68234 16.9748 3.38499 17.7227 3.38499C18.4707 3.38499 19.188 3.68234 19.7158 4.21076C20.245 4.73937 20.5423 5.45668 20.5423 6.20466C20.5423 6.95265 20.245 7.66995 19.7162 8.19818L19.6694 8.24488C19.5265 8.391 19.4869 8.6094 19.5694 8.7964C19.5951 8.85461 19.6151 8.91498 19.6292 8.97666C19.7215 9.10336 19.8693 9.18136 20.0273 9.182H20.1818C21.7383 9.182 23 10.4438 23 12.0002C23 13.5567 21.7383 14.8185 20.1818 14.8185L20.104 14.8185C19.9047 14.8193 19.7249 14.9383 19.6464 15.1215L19.6421 15.1314C19.5596 15.3184 19.5992 15.5368 19.7344 15.675L19.7885 15.7292C20.3177 16.2578 20.6151 16.9751 20.6151 17.7231C20.6151 18.4711 20.3177 19.1884 19.7893 19.7162C19.2607 20.2454 18.5434 20.5428 17.7955 20.5428C17.0475 20.5428 16.3302 20.2454 15.802 19.7166L15.7553 19.6698C15.6092 19.5269 15.3908 19.4873 15.1939 19.5741C15.0108 19.6526 14.8917 19.8324 14.8909 20.0277V20.1822C14.8909 21.7387 13.6292 23.0005 12.0727 23.0005C10.5163 23.0005 9.25455 21.7387 9.25455 20.1822L9.25482 20.1238C9.25002 19.9186 9.12024 19.7371 8.86896 19.6425C8.68196 19.56 8.46357 19.5996 8.32529 19.7348L8.27113 19.7889C7.74253 20.3181 7.02524 20.6155 6.27727 20.6155C5.5293 20.6155 4.81201 20.3181 4.28419 19.7897C3.755 19.2611 3.45766 18.5438 3.45766 17.7958C3.45766 17.0478 3.75501 16.3305 4.2838 15.8023L4.33059 15.7556C4.47352 15.6095 4.51312 15.3911 4.42632 15.1942C4.34781 15.0111 4.16802 14.892 3.97273 14.8912H3.81818C2.26174 14.8912 1 13.6294 1 12.073C1 10.5165 2.26174 9.25473 3.81818 9.25473L3.87662 9.255C4.08187 9.2502 4.26332 9.12042 4.35786 8.86914C4.44039 8.68213 4.40079 8.46373 4.26562 8.32545L4.21147 8.2713C3.68228 7.74269 3.38493 7.02538 3.38493 6.27739C3.38493 5.5294 3.68228 4.81209 4.21068 4.28427C4.73928 3.75507 5.45657 3.45772 6.20455 3.45772C6.95252 3.45772 7.66981 3.75507 8.19802 4.28388L8.24472 4.33067C8.39084 4.4736 8.60924 4.5132 8.79623 4.43067C8.85444 4.40498 8.9148 4.38497 8.97648 4.37083C9.10319 4.27854 9.18118 4.13074 9.18182 3.97279V3.81824C9.18182 2.26177 10.4436 1 12 1ZM12 3.00004C11.5481 3.00004 11.1818 3.36636 11.1818 3.81824L11.1818 3.97678C11.1778 4.97323 10.5825 5.87217 9.66666 6.26471C9.58511 6.29966 9.49946 6.32352 9.41201 6.33583C8.52265 6.6439 7.52682 6.42621 6.83835 5.75267L6.78341 5.69773C6.62994 5.54409 6.4217 5.45776 6.20455 5.45776C5.98739 5.45776 5.77915 5.54409 5.62489 5.69851C5.47126 5.85198 5.38493 6.06023 5.38493 6.27739C5.38493 6.49455 5.47126 6.7028 5.62529 6.85666L5.68759 6.91905C6.40224 7.64965 6.60024 8.74168 6.21126 9.6181C5.85692 10.5816 4.94964 11.2305 3.9 11.2548H3.81818C3.36631 11.2548 3 11.6211 3 12.073C3 12.5249 3.36631 12.8912 3.81818 12.8912L3.97671 12.8912C4.97314 12.8952 5.87206 13.4905 6.26032 14.3965C6.67296 15.3315 6.47496 16.4236 5.75257 17.162L5.69763 17.2169C5.54399 17.3704 5.45766 17.5787 5.45766 17.7958C5.45766 18.013 5.54399 18.2212 5.69841 18.3755C5.85187 18.5291 6.06012 18.6155 6.27727 18.6155C6.49443 18.6155 6.70267 18.5291 6.85653 18.3751L6.91891 18.3128C7.6495 17.5981 8.74151 17.4001 9.61791 17.7891C10.5814 18.1435 11.2303 19.0508 11.2545 20.1004V20.1822C11.2545 20.6341 11.6209 21.0004 12.0727 21.0004C12.5246 21.0004 12.8909 20.6341 12.8909 20.1822L12.8909 20.0237C12.8949 19.0273 13.4902 18.1283 14.3962 17.7401C15.3312 17.3274 16.4232 17.5254 17.1617 18.2478L17.2166 18.3028C17.3701 18.4564 17.5783 18.5427 17.7955 18.5427C18.0126 18.5427 18.2209 18.4564 18.3751 18.302C18.5287 18.1485 18.6151 17.9403 18.6151 17.7231C18.6151 17.5059 18.5287 17.2977 18.3747 17.1438L18.3124 17.0814C17.599 16.3521 17.4005 15.2626 17.8103 14.3287C18.2039 13.4156 19.1014 12.8224 20.1 12.8184H20.1818C20.6337 12.8184 21 12.4521 21 12.0002C21 11.5484 20.6337 11.182 20.1818 11.182L20.0233 11.182C19.0269 11.1781 18.1279 10.5827 17.7354 9.66685C17.7005 9.5853 17.6766 9.49966 17.6643 9.4122C17.3562 8.52282 17.5739 7.52696 18.2474 6.83848L18.3024 6.78354C18.456 6.63007 18.5423 6.42182 18.5423 6.20466C18.5423 5.9875 18.456 5.77925 18.3016 5.625C18.1481 5.47136 17.9399 5.38503 17.7227 5.38503C17.5056 5.38503 17.2973 5.47136 17.1435 5.62539L17.0811 5.6877C16.3505 6.40236 15.2585 6.60036 14.3333 6.19198C13.4175 5.79944 12.8222 4.9005 12.8182 3.90006V3.81824C12.8182 3.36636 12.4519 3.00004 12 3.00004ZM12 8.27289C14.0585 8.27289 15.7273 9.94169 15.7273 12.0002C15.7273 14.0588 14.0585 15.7276 12 15.7276C9.94149 15.7276 8.27273 14.0588 8.27273 12.0002C8.27273 9.94169 9.94149 8.27289 12 8.27289ZM12 10.2729C11.0461 10.2729 10.2727 11.0463 10.2727 12.0002C10.2727 12.9542 11.0461 13.7276 12 13.7276C12.9539 13.7276 13.7273 12.9542 13.7273 12.0002C13.7273 11.0463 12.9539 10.2729 12 10.2729Z" fill="#A9A9A9"/>
</svg>
