<svg width="24" height="25" viewBox="0 0 24 25" fill="none" xmlns="http://www.w3.org/2000/svg">
<path fill-rule="evenodd" clip-rule="evenodd" d="M20 8.22048C21.6568 8.22048 23 9.60069 23 11.3033V20.5516C23 22.2541 21.6568 23.6344 20 23.6344H11C9.34314 23.6344 8 22.2541 8 20.5516V11.3033C8 9.60069 9.34314 8.22048 11 8.22048H20ZM20 10.2757H11C10.4477 10.2757 10 10.7357 10 11.3033V20.5516C10 21.1191 10.4477 21.5792 11 21.5792H20C20.5523 21.5792 21 21.1191 21 20.5516V11.3033C21 10.7357 20.5523 10.2757 20 10.2757ZM13 1.02734C14.6568 1.02734 16 2.40755 16 4.11012V5.13771C16 5.70523 15.5523 6.1653 15 6.1653C14.4477 6.1653 14 5.70523 14 5.13771V4.11012C14 3.54259 13.5523 3.08253 13 3.08253H4C3.44771 3.08253 3 3.54259 3 4.11012V13.3584C3 13.926 3.44771 14.386 4 14.386H5C5.55228 14.386 6 14.8461 6 15.4136C6 15.9811 5.55228 16.4412 5 16.4412H4C2.34315 16.4412 1 15.061 1 13.3584V4.11012C1 2.40755 2.34315 1.02734 4 1.02734H13Z" fill="#A9A9A9"/>
<path fill-rule="evenodd" clip-rule="evenodd" d="M15.4987 12.1582C15.7518 12.1582 15.957 12.3691 15.957 12.6292V15.4549H18.707C18.9421 15.4549 19.1358 15.6367 19.1623 15.8709L19.1654 15.9258C19.1654 16.1859 18.9602 16.3968 18.707 16.3968H15.957V19.2225C15.957 19.4641 15.7801 19.6631 15.5521 19.6903L15.4987 19.6935C15.2456 19.6935 15.0404 19.4826 15.0404 19.2225V16.3968H12.2904C12.0553 16.3968 11.8616 16.215 11.8351 15.9808L11.832 15.9258C11.832 15.6657 12.0372 15.4549 12.2904 15.4549H15.0404V12.6292C15.0404 12.3876 15.2173 12.1886 15.4452 12.1614L15.4987 12.1582Z" fill="#A9A9A9" stroke="#A9A9A9"/>
</svg>
