<svg width="24" height="24" viewBox="0 0 24 24" fill="none" xmlns="http://www.w3.org/2000/svg">
<path d="M22.9131 14.9753C22.6249 14.9753 22.3484 15.0931 22.1446 15.3027C21.9408 15.5122 21.8262 15.7965 21.8262 16.0929V19.6471C21.8262 19.9435 21.7117 20.2278 21.5079 20.4373C21.3041 20.6469 21.0276 20.7647 20.7394 20.7647H4.26062C3.97236 20.7647 3.69592 20.6469 3.49208 20.4373C3.28826 20.2278 3.17375 19.9435 3.17375 19.6471V5.35294C3.17375 5.05652 3.28826 4.77225 3.49208 4.56264C3.69592 4.35305 3.97236 4.23529 4.26062 4.23529H8.80281C9.09105 4.23529 9.36755 4.11754 9.57134 3.90795C9.77513 3.69834 9.88969 3.41407 9.88969 3.11765C9.88969 2.82122 9.77513 2.53695 9.57134 2.32735C9.36755 2.11776 9.09105 2 8.80281 2H4.26062C3.39585 2 2.5665 2.35325 1.95502 2.98205C1.34353 3.61085 1 4.46369 1 5.35294V19.6471C1 20.5363 1.34353 21.3891 1.95502 22.0179C2.5665 22.6467 3.39585 23 4.26062 23H20.7394C21.6041 23 22.4335 22.6467 23.045 22.0179C23.6564 21.3891 24 20.5363 24 19.6471V16.0929C24 15.7965 23.8854 15.5122 23.6817 15.3027C23.4779 15.0931 23.2014 14.9753 22.9131 14.9753Z" fill="#A9A9A9"/>
<path d="M14.375 11.25H12.625C11.1897 11.2495 9.78145 11.6413 8.55264 12.383C7.32383 13.1248 6.32115 14.1884 5.653 15.4587C5.63422 15.223 5.62488 14.9865 5.625 14.75C5.625 9.91738 9.54238 6 14.375 6V1.1875L23.5625 8.625L14.375 16.0625V11.25ZM12.625 9.5H16.125V12.3945L20.7809 8.625L16.125 4.8555V7.75H14.375C13.369 7.74887 12.3746 7.96509 11.4598 8.38387C10.5451 8.80265 9.73166 9.4141 9.07513 10.1764C10.205 9.72857 11.4096 9.49905 12.625 9.5Z" fill="#A9A9A9"/>
</svg>
