<svg width="24" height="24" viewBox="0 0 24 24" fill="none" xmlns="http://www.w3.org/2000/svg">
<path d="M1.00853 13.6226C1.01063 13.6052 1.01302 13.5881 1.01577 13.571C1.01956 13.5472 1.02412 13.5235 1.02935 13.5001C1.0333 13.4826 1.03757 13.4653 1.04224 13.448C1.04796 13.4267 1.05428 13.4057 1.06115 13.3849C1.06778 13.3649 1.07497 13.3449 1.08272 13.3251L1.10609 13.2698C1.11493 13.2501 1.12446 13.2305 1.13455 13.2112C1.17279 13.138 1.21829 13.0701 1.27 13.0085C1.2713 13.007 1.27321 13.0047 1.27512 13.0025L1.29742 12.9771L1.31946 12.9536L1.32963 12.9431L1.298 12.977L1.336 12.937L1.38713 12.8892C1.4018 12.8766 1.41719 12.8639 1.43291 12.8518C1.44557 12.8419 1.45823 12.8326 1.47104 12.8236C1.48862 12.8114 1.50661 12.7997 1.52494 12.7885C1.54059 12.7789 1.55628 12.77 1.57213 12.7615C1.59005 12.752 1.60869 12.7427 1.62761 12.7341C1.64098 12.7281 1.65402 12.7225 1.66714 12.7173C1.68449 12.7102 1.7022 12.7037 1.72011 12.6978C1.73781 12.692 1.75557 12.6866 1.77343 12.6819C1.79285 12.6765 1.81252 12.6719 1.83238 12.6679C1.84695 12.6651 1.86166 12.6626 1.87641 12.6603C1.88309 12.6592 1.88953 12.6583 1.89599 12.6575L1.9245 12.6544C1.95117 12.6518 1.97793 12.6503 2.0047 12.65L7.54671 12.65C8.10688 12.65 8.56098 13.1506 8.56098 13.7682C8.56098 14.3417 8.16943 14.8143 7.66499 14.8789L7.54671 14.8864L4.574 14.885L7.01008 17.4099C7.87995 18.3694 8.9561 19.0703 10.1382 19.4473C11.3201 19.8243 12.5696 19.865 13.7697 19.5656C14.9699 19.2661 16.0818 18.6364 17.0014 17.7352C17.9211 16.8341 18.6187 15.6907 19.0293 14.4117C19.2162 13.8295 19.7957 13.5246 20.3238 13.7306C20.8519 13.9367 21.1285 14.5756 20.9416 15.1578C20.4167 16.7929 19.5248 18.2547 18.349 19.4068C17.1733 20.559 15.7519 21.364 14.2174 21.7469C12.683 22.1296 11.0856 22.0776 9.57451 21.5956C8.17954 21.1508 6.8999 20.3531 5.85453 19.2873L5.59813 19.0153L3.028 16.353L3.02856 19.8676C3.02856 20.441 2.637 20.9137 2.13256 20.9783L2.01428 20.9858C1.49412 20.9858 1.06541 20.5541 1.00682 19.998L1 19.8676L1.00072 13.7258L1.001 13.713V13.725L1.00205 13.6966L1 13.7682C1 13.7189 1.0029 13.6702 1.00853 13.6226ZM14.4255 2.40442C15.8205 2.84939 17.1002 3.6474 18.1455 4.71339L18.4019 4.98542L20.97 7.647L20.9714 4.13293C20.9714 3.55931 21.363 3.08655 21.8674 3.02193L21.9857 3.01441C22.5059 3.01441 22.9346 3.4462 22.9932 4.00248L23 4.13293L22.9999 10.2472C22.9998 10.2609 22.9994 10.2747 22.9988 10.2884L23 10.2339C23 10.2833 22.9971 10.3319 22.9915 10.3796C22.9894 10.397 22.987 10.4141 22.9842 10.4312C22.9804 10.455 22.9759 10.4787 22.9706 10.5022C22.9667 10.5196 22.9624 10.5369 22.9578 10.5542C22.952 10.5755 22.9457 10.5966 22.9389 10.6173C22.9322 10.6373 22.925 10.6573 22.9173 10.6771C22.9099 10.6958 22.9021 10.7143 22.8939 10.7325C22.8851 10.7522 22.8755 10.7718 22.8655 10.7911C22.8278 10.8631 22.7832 10.9301 22.7325 10.9909L22.665 11.063L22.664 11.064L22.614 11.1122C22.5995 11.1247 22.5845 11.1371 22.5691 11.149C22.5537 11.1611 22.5383 11.1724 22.5228 11.1831C22.5101 11.1917 22.497 11.2003 22.4839 11.2085C22.4651 11.2202 22.4461 11.2312 22.4268 11.2415C22.4093 11.2508 22.391 11.2598 22.3724 11.2683C22.3601 11.2738 22.348 11.279 22.3359 11.2839C22.313 11.2933 22.2897 11.3017 22.2659 11.3092L22.2464 11.315L22.2267 11.3205C22.2081 11.3257 22.1895 11.3301 22.1706 11.3339C22.1531 11.3373 22.1357 11.3404 22.1182 11.3429L22.104 11.3449L22.0666 11.3489C22.046 11.3507 22.0254 11.3518 22.0048 11.3522L16.4533 11.3524C15.8931 11.3524 15.439 10.8517 15.439 10.2339C15.439 9.66031 15.8306 9.18754 16.335 9.12293L16.4533 9.1154L19.424 9.114L16.9899 6.59124C16.1201 5.63154 15.0439 4.93041 13.8619 4.55336C12.6799 4.17632 11.4304 4.13563 10.2303 4.43508C9.03012 4.73454 7.91831 5.36439 6.99859 6.26585C6.07887 7.16731 5.38122 8.31101 4.97073 9.59023C4.78386 10.1726 4.20427 10.4776 3.67619 10.2715C3.14811 10.0655 2.87151 9.42631 3.05838 8.84396C3.58318 7.2085 4.47512 5.74631 5.65096 4.5938C6.8268 3.4413 8.24823 2.63605 9.78262 2.2532C11.317 1.87035 12.9143 1.92238 14.4255 2.40442Z" fill="#A9A9A9"/>
</svg>
